<svg width="119" height="85" viewBox="0 0 119 85" fill="none" xmlns="http://www.w3.org/2000/svg">
<path d="M0 0.552979H4.577V5.63298H0V0.552979ZM22.885 0.552979H27.462V5.63298H22.885V0.552979ZM45.769 0.552979H50.346V5.63298H45.769V0.552979ZM68.654 0.552979H73.231V5.63298H68.654V0.552979ZM91.538 0.552979H96.115V5.63298H91.538V0.552979ZM114.423 0.552979H119V5.63298H114.423V0.552979Z" fill="#E5E5FF"/>
<path d="M0 16.8059H4.577V21.8859H0V16.8059ZM22.885 16.8059H27.462V21.8859H22.885V16.8059ZM45.769 16.8059H50.346V21.8859H45.769V16.8059ZM68.654 16.8059H73.231V21.8859H68.654V16.8059ZM91.538 16.8059H96.115V21.8859H91.538V16.8059ZM114.423 16.8059H119V21.8859H114.423V16.8059Z" fill="#E5E5FF"/>
<path d="M0 32.043H4.577V37.123H0V32.043ZM22.885 32.043H27.462V37.123H22.885V32.043ZM45.769 32.043H50.346V37.123H45.769V32.043ZM68.654 32.043H73.231V37.123H68.654V32.043ZM91.538 32.043H96.115V37.123H91.538V32.043ZM114.423 32.043H119V37.123H114.423V32.043Z" fill="#E5E5FF"/>
<path d="M0 48.2959H4.577V53.3759H0V48.2959ZM22.885 48.2959H27.462V53.3759H22.885V48.2959ZM45.769 48.2959H50.346V53.3759H45.769V48.2959ZM68.654 48.2959H73.231V53.3759H68.654V48.2959ZM91.538 48.2959H96.115V53.3759H91.538V48.2959ZM114.423 48.2959H119V53.3759H114.423V48.2959Z" fill="#E5E5FF"/>
<path d="M0 63.5339H4.577V68.6129H0V63.5339ZM22.885 63.5339H27.462V68.6129H22.885V63.5339ZM45.769 63.5339H50.346V68.6129H45.769V63.5339ZM68.654 63.5339H73.231V68.6129H68.654V63.5339ZM91.538 63.5339H96.115V68.6129H91.538V63.5339ZM114.423 63.5339H119V68.6129H114.423V63.5339Z" fill="#E5E5FF"/>
<path d="M0 79.7869H4.577V84.8659H0V79.7869ZM22.885 79.7869H27.462V84.8659H22.885V79.7869ZM45.769 79.7869H50.346V84.8659H45.769V79.7869ZM68.654 79.7869H73.231V84.8659H68.654V79.7869ZM91.538 79.7869H96.115V84.8659H91.538V79.7869ZM114.423 79.7869H119V84.8659H114.423V79.7869Z" fill="#E5E5FF"/>
</svg>
