<?xml version="1.0" encoding="utf-8"?>
<!-- Generator: Adobe Illustrator 21.1.0, SVG Export Plug-In . SVG Version: 6.00 Build 0)  -->
<svg version="1.1" id="Layer_1" xmlns="http://www.w3.org/2000/svg" xmlns:xlink="http://www.w3.org/1999/xlink" x="0px" y="0px"
	 viewBox="0 0 380 380" style="enable-background:new 0 0 380 380;" xml:space="preserve">
<style type="text/css">
	.st0{fill:#29B8FF;}
	.st1{opacity:0.6;fill:url(#SVGID_1_);}
</style>
<g>
	<path class="st0" d="M279.4,65.3l36.3,92.7c3.7,7.9,8,13.7,12.9,17.6c4.9,3.9,10.4,5.8,16.5,5.8c7.8,0,13.8-3,18.2-9
		c4.4-6,6.6-14.4,6.6-25.1V28.7H340v115.9l-36-93.9c-3.9-8-8.2-13.9-12.9-17.7c-4.6-3.8-9.9-5.7-15.7-5.7c-8.2,0-14.5,2.9-18.9,8.9
		c-4.4,5.9-6.6,14.4-6.6,25.4v117.8h29.5V65.3z M217.5,162.8c11.8-13.4,14.9-34.3,14.9-57.1V29.1h-32.1v81.6
		c0,10.2-2.8,21.2-8.5,27.5c-5.5,6.1-12.4,9.1-21.1,9.1c-9,0-15.9-1.8-21.3-7.8c-5.5-6.2-11-14.1-10.7-28.8V29.1h-31.4v81.6
		c0,13.4-5.3,21.2-10.9,27.5c-5.6,6.1-12.5,9.1-21.4,9.1c-9,0-14.5-2.9-19.9-9c-5.5-6.2-9.7-17.2-9.7-27.6V29.1H13.8v76.5
		c0,22.7,2.4,43.6,14.2,57c12,13.7,26.9,20.6,47,20.6c10.2,0,19.7-2.3,28.4-6.7c7.1-3.7,13.6-8.9,19.4-15.5
		c5.5,6.5,11.9,11.7,19.1,15.4c8.8,4.5,18.4,6.8,28.8,6.8C190.7,183.3,205.6,176.4,217.5,162.8z M292.4,273.4
		c2.7,4.9,4.1,11.3,4.1,19.2v1.5c0,7.1-1.3,12.7-4,16.9c-2.7,4.2-7,6.2-12.9,6.2c-3.9,0-7.1-0.8-9.7-2.5c-2.6-1.7-4.6-4-6.1-7.1v-32
		c1.5-3,3.5-5.4,6.1-7c2.6-1.7,5.7-2.5,9.5-2.5C285.3,266.1,289.7,268.6,292.4,273.4z M364.2,225.3v109.1c0,11.2-9.1,20.3-20.3,20.3
		H41.1c-11.2,0-20.3-9.1-20.3-20.3V225.3c0-11.2,9.1-20.3,20.3-20.3h302.9C355.1,205,364.2,214.2,364.2,225.3z M150.3,283.3
		c0-10.6-2.3-18.5-6.8-23.5c-4.5-5.1-10.8-7.6-18.9-7.6c-4.4,0-8.4,1-12.1,3c-3.6,2-6.7,4.7-9.3,8.3v-43.5H86.2v109.8h17.1v-55.8
		c1.7-2.4,3.9-4.4,6.6-5.7c2.7-1.4,5.6-2.1,9-2.1c4.8,0,8.4,1.3,10.8,4c2.4,2.7,3.6,7,3.6,13v46.5h17.1V283.3z M229.8,253.5h-17.1
		v55.1c-1.6,2.8-3.8,5-6.6,6.4c-2.8,1.5-6.3,2.2-10.4,2.2c-4.4,0-7.6-1.3-9.8-4c-2.2-2.7-3.2-7.3-3.2-14v-45.7h-17v45.6
		c0,11,2.3,19.1,6.9,24.3c4.6,5.2,11,7.8,19.1,7.8c4.8,0,9-1.1,12.7-3.3c3.7-2.2,6.7-5.3,9.1-9.3l1.4,11.1h14.9V253.5z M313.6,292.7
		c0-12.2-2.6-22-7.8-29.4c-5.2-7.4-12.5-11.1-22.1-11.1c-4.4,0-8.2,0.9-11.5,2.6c-3.3,1.7-6.1,4.2-8.4,7.5v-42.3h-17.1v109.8H261
		l1.7-9.9c2.3,3.7,5.3,6.5,8.8,8.4c3.5,1.9,7.6,2.9,12.4,2.9c9.4,0,16.7-3.4,21.9-10.2c5.2-6.8,7.8-15.7,7.8-26.9V292.7z"/>
	<linearGradient id="SVGID_1_" gradientUnits="userSpaceOnUse" x1="13.7521" y1="191.0299" x2="369.8183" y2="191.0299">
		<stop  offset="0" style="stop-color:#00CAFF"/>
		<stop  offset="0.773" style="stop-color:#0070E5"/>
		<stop  offset="1" style="stop-color:#0029E5"/>
	</linearGradient>
	<path class="st1" d="M279.4,65.3l36.3,92.7c3.7,7.9,8,13.7,12.9,17.6c4.9,3.9,10.4,5.8,16.5,5.8c7.8,0,13.8-3,18.2-9
		c4.4-6,6.6-14.4,6.6-25.1V28.7H340v115.9l-36-93.9c-3.9-8-8.2-13.9-12.9-17.7c-4.6-3.8-9.9-5.7-15.7-5.7c-8.2,0-14.5,2.9-18.9,8.9
		c-4.4,5.9-6.6,14.4-6.6,25.4v117.8h29.5V65.3z M217.5,162.8c11.8-13.4,14.9-34.3,14.9-57.1V29.1h-32.1v81.6
		c0,10.2-2.8,21.2-8.5,27.5c-5.5,6.1-12.4,9.1-21.1,9.1c-9,0-15.9-1.8-21.3-7.8c-5.5-6.2-11-14.1-10.7-28.8V29.1h-31.4v81.6
		c0,13.4-5.3,21.2-10.9,27.5c-5.6,6.1-12.5,9.1-21.4,9.1c-9,0-14.5-2.9-19.9-9c-5.5-6.2-9.7-17.2-9.7-27.6V29.1H13.8v76.5
		c0,22.7,2.4,43.6,14.2,57c12,13.7,26.9,20.6,47,20.6c10.2,0,19.7-2.3,28.4-6.7c7.1-3.7,13.6-8.9,19.4-15.5
		c5.5,6.5,11.9,11.7,19.1,15.4c8.8,4.5,18.4,6.8,28.8,6.8C190.7,183.3,205.6,176.4,217.5,162.8z M292.4,273.4
		c2.7,4.9,4.1,11.3,4.1,19.2v1.5c0,7.1-1.3,12.7-4,16.9c-2.7,4.2-7,6.2-12.9,6.2c-3.9,0-7.1-0.8-9.7-2.5c-2.6-1.7-4.6-4-6.1-7.1v-32
		c1.5-3,3.5-5.4,6.1-7c2.6-1.7,5.7-2.5,9.5-2.5C285.3,266.1,289.7,268.6,292.4,273.4z M364.2,225.3v109.1c0,11.2-9.1,20.3-20.3,20.3
		H41.1c-11.2,0-20.3-9.1-20.3-20.3V225.3c0-11.2,9.1-20.3,20.3-20.3h302.9C355.1,205,364.2,214.2,364.2,225.3z M150.3,283.3
		c0-10.6-2.3-18.5-6.8-23.5c-4.5-5.1-10.8-7.6-18.9-7.6c-4.4,0-8.4,1-12.1,3c-3.6,2-6.7,4.7-9.3,8.3v-43.5H86.2v109.8h17.1v-55.8
		c1.7-2.4,3.9-4.4,6.6-5.7c2.7-1.4,5.6-2.1,9-2.1c4.8,0,8.4,1.3,10.8,4c2.4,2.7,3.6,7,3.6,13v46.5h17.1V283.3z M229.8,253.5h-17.1
		v55.1c-1.6,2.8-3.8,5-6.6,6.4c-2.8,1.5-6.3,2.2-10.4,2.2c-4.4,0-7.6-1.3-9.8-4c-2.2-2.7-3.2-7.3-3.2-14v-45.7h-17v45.6
		c0,11,2.3,19.1,6.9,24.3c4.6,5.2,11,7.8,19.1,7.8c4.8,0,9-1.1,12.7-3.3c3.7-2.2,6.7-5.3,9.1-9.3l1.4,11.1h14.9V253.5z M313.6,292.7
		c0-12.2-2.6-22-7.8-29.4c-5.2-7.4-12.5-11.1-22.1-11.1c-4.4,0-8.2,0.9-11.5,2.6c-3.3,1.7-6.1,4.2-8.4,7.5v-42.3h-17.1v109.8H261
		l1.7-9.9c2.3,3.7,5.3,6.5,8.8,8.4c3.5,1.9,7.6,2.9,12.4,2.9c9.4,0,16.7-3.4,21.9-10.2c5.2-6.8,7.8-15.7,7.8-26.9V292.7z"/>
</g>
</svg>
