<?xml version="1.0" encoding="utf-8"?>
<!-- Generator: Adobe Illustrator 21.1.0, SVG Export Plug-In . SVG Version: 6.00 Build 0)  -->
<svg version="1.1" id="COLOR" xmlns="http://www.w3.org/2000/svg" xmlns:xlink="http://www.w3.org/1999/xlink" x="0px" y="0px"
	 viewBox="0 0 440 130" style="enable-background:new 0 0 440 130;" xml:space="preserve">
<style type="text/css">
	.st0{fill:#FFFFFF;}
</style>
<g>
	<path class="st0" d="M167.9,44.7l21.4,54.8c2.2,4.6,4.7,8.1,7.6,10.4c2.9,2.3,6.1,3.4,9.7,3.4c4.6,0,8.2-1.8,10.8-5.3
		c2.6-3.6,3.9-8.5,3.9-14.8V23.1h-17.6v68.5l-21.3-55.5c-2.3-4.7-4.9-8.2-7.6-10.5c-2.7-2.3-5.8-3.4-9.3-3.4
		c-4.8,0-8.6,1.7-11.2,5.2c-2.6,3.5-3.9,8.5-3.9,15v69.6h17.4V44.7z M131.3,102.4c6.9-7.9,8.8-20.3,8.8-33.8V23.4h-19v48.2
		c0,6.1-1.7,12.6-5,16.2c-3.3,3.6-7.3,5.4-12.5,5.4c-5.3,0-9.4-1-12.6-4.6c-3.3-3.7-6.5-8.4-6.3-17V23.4H66.1v48.2
		c0,7.9-3.1,12.5-6.5,16.2c-3.3,3.6-7.4,5.4-12.6,5.4c-5.3,0-8.6-1.7-11.8-5.3c-3.3-3.7-5.7-10.2-5.7-16.3V23.4H10.9v45.2
		c0,13.4,1.4,25.8,8.4,33.7c7.1,8.1,15.9,12.2,27.7,12.2c6,0,11.6-1.3,16.8-4c4.2-2.2,8.1-5.2,11.5-9.1c3.3,3.8,7,6.9,11.3,9.1
		c5.2,2.7,10.9,4,17,4C115.4,114.5,124.3,110.4,131.3,102.4z M397.2,62.3c1.9,3.4,2.9,7.9,2.9,13.4v1c0,5-0.9,8.9-2.8,11.8
		c-1.9,2.9-4.9,4.4-9,4.4c-2.7,0-5-0.6-6.8-1.7c-1.8-1.2-3.2-2.8-4.2-4.9V63.9c1-2.1,2.5-3.7,4.3-4.9c1.8-1.2,4-1.8,6.7-1.8
		C392.3,57.2,395.3,58.9,397.2,62.3z M429.3,24v83c0,6.6-5.4,12-12,12h-161c-6.6,0-12-5.4-12-12V24c0-6.6,5.4-12,12-12h161
		C423.9,12,429.3,17.4,429.3,24z M309.9,69.2c0-7.4-1.6-12.9-4.7-16.5c-3.2-3.6-7.6-5.3-13.2-5.3c-3.1,0-5.9,0.7-8.4,2.1
		c-2.5,1.4-4.7,3.3-6.5,5.8V24.9h-12v76.7h12v-39c1.2-1.7,2.7-3,4.6-4c1.9-1,3.9-1.5,6.3-1.5c3.3,0,5.9,0.9,7.5,2.8
		c1.7,1.9,2.5,4.9,2.5,9.1v32.5h12V69.2z M358.8,48.4h-12v38.5c-1.1,2-2.6,3.5-4.6,4.5c-2,1-4.4,1.5-7.3,1.5c-3,0-5.3-0.9-6.8-2.8
		c-1.5-1.9-2.3-5.1-2.3-9.8V48.4H314v31.8c0,7.7,1.6,13.3,4.8,17c3.2,3.6,7.7,5.5,13.4,5.5c3.3,0,6.3-0.8,8.9-2.3s4.7-3.7,6.3-6.5
		l1,7.8h10.4V48.4z M412,75.7c0-8.5-1.8-15.4-5.4-20.6c-3.6-5.2-8.8-7.8-15.4-7.8c-3,0-5.7,0.6-8,1.8c-2.3,1.2-4.3,3-5.9,5.2V24.9
		h-12v76.7h10l1.2-6.9c1.6,2.6,3.7,4.6,6.1,5.9c2.4,1.3,5.3,2,8.6,2c6.6,0,11.7-2.4,15.3-7.1c3.6-4.7,5.4-11,5.4-18.8V75.7z"/>
</g>
<g>
</g>
<g>
</g>
<g>
</g>
<g>
</g>
<g>
</g>
<g>
</g>
</svg>
