<?xml version="1.0" encoding="utf-8"?>
<!-- Generator: Adobe Illustrator 21.1.0, SVG Export Plug-In . SVG Version: 6.00 Build 0)  -->
<svg version="1.1" id="Layer_1" xmlns="http://www.w3.org/2000/svg" xmlns:xlink="http://www.w3.org/1999/xlink" x="0px" y="0px"
	 viewBox="0 0 2162 1162" style="enable-background:new 0 0 2162 1162;" xml:space="preserve">
<style type="text/css">
	.st0{fill:#D6D6D6;}
	.st1{fill:#E815A7;}
	.st2{fill:#29B8FF;}
	.st3{opacity:0.6;fill:url(#SVGID_1_);enable-background:new    ;}
	.st4{fill:#FFFFFF;}
</style>
<g id="Layer_2">
	<polygon class="st0" points="1728.5,1053.3 1554.2,202.1 1601.9,196.8 1778.9,1063.9 	"/>
	<path class="st1" d="M1209.6,392.4L1311,711.8c2.8,8.8,12,13.9,20.9,11.6l716.7-182.9c8.8-2.3,14.4-10.9,12.8-19.9l-51.5-290.1
		c-1.7-9.6-11-16-20.6-14L1222.7,370C1212.6,372,1206.4,382.5,1209.6,392.4z"/>
</g>
<g>
	<path class="st2" d="M825.6,205.1l110.7,283c11.4,23.9,24.5,41.9,39.3,53.7c14.8,11.8,31.6,17.7,50.3,17.7
		c23.7,0,42.2-9.1,55.6-27.5c13.4-18.4,20-43.8,20-76.6V93.6h-91v353.9L900.6,160.8c-12-24.3-25.1-42.3-39.3-54
		s-30.2-17.5-47.8-17.5c-25,0-44.3,9-57.8,27c-13.5,18-20.2,43.9-20.2,77.5v359.3h90.1V205.1z M636.5,502.7
		c35.9-40.9,45.4-104.8,45.4-174.4V94.8h-98v249.1c0,31.2-8.7,64.8-25.8,83.9c-16.9,18.7-37.7,27.8-64.6,27.8
		c-27.4,0-48.4-5.3-65-23.8c-16.8-18.8-33.5-43.1-32.7-87.8V94.8h-95.8v249.1c0.1,41-16,64.8-33.3,83.7
		c-17.1,18.8-38.1,27.9-65.4,27.9c-27.4,0-44.2-9-60.7-27.5c-16.8-18.8-29.6-52.5-29.6-84.1V94.8H14.7v233.6
		c0,69.2,7.3,133.1,43.4,174.1c36.6,41.7,82.2,62.8,143.3,62.8c31.2,0,60.1-6.9,86.5-20.5c21.7-11.2,41.7-27,59.3-47.2
		c16.8,19.8,36.4,35.6,58.3,47c26.7,13.8,56.1,20.8,88,20.8C554.6,565.3,600,544.2,636.5,502.7z M865,840.4
		c8.3,14.9,12.4,34.4,12.4,58.6v4.5c0,21.7-4.1,38.8-12.3,51.5c-8.2,12.7-21.3,19.1-39.3,19.1c-11.9,0-21.8-2.5-29.6-7.7
		c-7.9-5-14-12.3-18.5-21.6v-97.5c4.6-9.1,10.7-16.3,18.5-21.4s17.5-7.7,29.1-7.7C843.6,818.1,856.8,825.6,865,840.4z M1084.3,693.7
		v333c0,34.1-27.9,61.9-61.9,61.9H97.9c-34.1,0-61.9-27.9-61.9-61.9v-333c0-34.1,27.9-61.9,61.9-61.9h924.4
		C1056.4,631.7,1084.3,659.6,1084.3,693.7z M431.4,870.6c0-32.4-6.9-56.4-20.8-71.8c-13.9-15.5-33.1-23.3-57.7-23.3
		c-13.5,0-25.8,3-36.9,9c-11.1,6.1-20.5,14.4-28.3,25.4v-133h-52.1v335.2h52.3V842c5.3-7.4,12-13.2,20.1-17.5
		c8.1-4.2,17.2-6.4,27.4-6.4c14.6,0,25.5,4.1,32.8,12.3s11,21.4,11,39.7v142.1h52.3V870.6z M674.1,779.6H622v168
		c-4.9,8.6-11.5,15.1-20.1,19.7c-8.5,4.5-19.1,6.7-31.8,6.7c-13.4,0-23.3-4.1-29.9-12.3c-6.6-8.2-9.9-22.4-9.9-42.7V779.6h-52v139
		c0,33.5,7,58.2,21,74.1c14,15.9,33.5,23.8,58.5,23.8c14.6,0,27.5-3.3,38.6-10.1c11.1-6.6,20.4-16.1,27.8-28.4l4.2,34h45.5V779.6
		H674.1z M929.7,899.2c0-37.3-7.9-67.2-23.7-89.8c-15.9-22.6-38.2-34-67.3-34c-13.4,0-25,2.6-35.1,7.9
		c-10.1,5.3-18.7,12.8-25.8,22.8V676.9h-52.3v335.2h43.8l5.2-30c7.1,11.4,16.1,20,26.7,25.8c10.7,5.8,23.3,8.9,37.7,8.9
		c28.8,0,51.1-10.3,66.9-31.1c15.9-20.6,23.7-48,23.7-82v-4.5H929.7z"/>
	
		<linearGradient id="SVGID_1_" gradientUnits="userSpaceOnUse" x1="14.7126" y1="574.9897" x2="1101.4019" y2="574.9897" gradientTransform="matrix(1 0 0 -1 0 1164)">
		<stop  offset="0" style="stop-color:#00CAFF"/>
		<stop  offset="0.773" style="stop-color:#0070E5"/>
		<stop  offset="1" style="stop-color:#0029E5"/>
	</linearGradient>
	<path class="st3" d="M825.6,205.1l110.7,283c11.4,23.9,24.5,41.9,39.3,53.7c14.8,11.8,31.6,17.7,50.3,17.7
		c23.7,0,42.2-9.1,55.6-27.5c13.4-18.4,20-43.8,20-76.6V93.6h-91v353.9L900.6,160.8c-12-24.3-25.1-42.3-39.3-54
		s-30.2-17.5-47.8-17.5c-25,0-44.3,9-57.8,27c-13.5,18-20.2,43.9-20.2,77.5v359.3h90.1V205.1z M636.5,502.7
		c35.9-40.9,45.4-104.8,45.4-174.4V94.8h-98v249.1c0,31.2-8.7,64.8-25.8,83.9c-16.9,18.7-37.7,27.8-64.6,27.8
		c-27.4,0-48.4-5.3-65-23.8c-16.8-18.8-33.5-43.1-32.7-87.8V94.8h-95.8v249.1c0.1,41-16,64.8-33.3,83.7
		c-17.1,18.8-38.1,27.9-65.4,27.9c-27.4,0-44.2-9-60.7-27.5c-16.8-18.8-29.6-52.5-29.6-84.1V94.8H14.7v233.6
		c0,69.2,7.3,133.1,43.4,174.1c36.6,41.7,82.2,62.8,143.3,62.8c31.2,0,60.1-6.9,86.5-20.5c21.7-11.2,41.7-27,59.3-47.2
		c16.8,19.8,36.4,35.6,58.3,47c26.7,13.8,56.1,20.8,88,20.8C554.6,565.3,600,544.2,636.5,502.7z M865,840.4
		c8.3,14.9,12.4,34.4,12.4,58.6v4.5c0,21.7-4.1,38.8-12.3,51.5c-8.2,12.7-21.3,19.1-39.3,19.1c-11.9,0-21.8-2.5-29.6-7.7
		c-7.9-5-14-12.3-18.5-21.6v-97.5c4.6-9.1,10.7-16.3,18.5-21.4s17.5-7.7,29.1-7.7C843.6,818.1,856.8,825.6,865,840.4z M1084.3,693.7
		v333c0,34.1-27.9,61.9-61.9,61.9H97.9c-34.1,0-61.9-27.9-61.9-61.9v-333c0-34.1,27.9-61.9,61.9-61.9h924.4
		C1056.4,631.7,1084.3,659.6,1084.3,693.7z M431.4,870.6c0-32.4-6.9-56.4-20.8-71.8c-13.9-15.5-33.1-23.3-57.7-23.3
		c-13.5,0-25.8,3-36.9,9c-11.1,6.1-20.5,14.4-28.3,25.4v-133h-52.1v335.2h52.3V842c5.3-7.4,12-13.2,20.1-17.5
		c8.1-4.2,17.2-6.4,27.4-6.4c14.6,0,25.5,4.1,32.8,12.3s11,21.4,11,39.7v142.1h52.3V870.6z M674.1,779.6H622v168
		c-4.9,8.6-11.5,15.1-20.1,19.7c-8.5,4.5-19.1,6.7-31.8,6.7c-13.4,0-23.3-4.1-29.9-12.3c-6.6-8.2-9.9-22.4-9.9-42.7V779.6h-52v139
		c0,33.5,7,58.2,21,74.1c14,15.9,33.5,23.8,58.5,23.8c14.6,0,27.5-3.3,38.6-10.1c11.1-6.6,20.4-16.1,27.8-28.4l4.2,34h45.5V779.6
		H674.1z M929.7,899.2c0-37.3-7.9-67.2-23.7-89.8c-15.9-22.6-38.2-34-67.3-34c-13.4,0-25,2.6-35.1,7.9
		c-10.1,5.3-18.7,12.8-25.8,22.8V676.9h-52.3v335.2h43.8l5.2-30c7.1,11.4,16.1,20,26.7,25.8c10.7,5.8,23.3,8.9,37.7,8.9
		c28.8,0,51.1-10.3,66.9-31.1c15.9-20.6,23.7-48,23.7-82v-4.5H929.7z"/>
</g>
<g>
	<path class="st4" d="M1331.5,490.4l0.9,2.3h0.3v-2.3l3.1-49.1l15.4-3.1l-7.5,67.8l-15.9,3.3l-33.5-59.3l15.4-3.1L1331.5,490.4z"/>
	<path class="st4" d="M1384.9,497.4l-14.7,3l-13-63.5l14.7-3L1384.9,497.4z"/>
	<path class="st4" d="M1405.6,467.8l5,24.3l-14.8,3l-13-63.5l24.5-5c7.4-1.5,13.6-1,18.6,1.5s8.2,6.8,9.3,12.7
		c0.6,3.3,0.4,6.3-0.9,9s-3.4,5.1-6.5,7.3c4.1,0.3,7.3,1.6,9.5,3.8c2.3,2.3,3.8,5.3,4.5,9l0.9,4c0.4,1.6,1,3.5,1.9,5.5
		s2.1,3.4,3.5,4l0.1,0.9l-15.2,3.1c-1.4-0.6-2.4-2.1-3.3-4.3c-0.9-2.3-1.5-4.3-1.9-6.3l-0.8-3.9c-0.6-3-1.9-5.1-3.8-6.4
		c-1.9-1.3-4.4-1.6-7.5-1L1405.6,467.8z M1403.3,456.5l9.8-2c3-0.6,5.1-1.8,6.4-3.4c1.3-1.6,1.6-3.8,1.1-6.3
		c-0.5-2.6-1.8-4.5-3.8-5.8c-1.9-1.3-4.4-1.6-7.3-1l-9.7,2L1403.3,456.5z"/>
	<path class="st4" d="M1486.2,422.4l-16.7,3.4l10.7,52.2l-14.8,3l-10.7-52.2l-16.6,3.4l-2.4-11.3l48.2-9.9L1486.2,422.4z"/>
	<path class="st4" d="M1541.9,399l8.5,41.7c1.5,7.3,0.3,13.3-3.8,18.3c-4,5-9.9,8.3-17.7,9.9c-7.9,1.6-14.7,0.9-20.3-2
		c-5.6-3-9.2-8.2-10.7-15.3l-8.5-41.7l14.8-3l8.5,41.7c0.8,3.9,2.4,6.5,4.8,8c2.4,1.5,5.4,1.9,9,1.1c3.6-0.8,6.3-2.3,7.8-4.5
		c1.6-2.3,2-5.4,1.1-9.3l-8.5-41.7L1541.9,399z"/>
	<path class="st4" d="M1595,441.6l-20.1,4.1l-1,13l-14.8,3l7.5-67.8l15.8-3.3l33.5,59.3l-14.8,3L1595,441.6z M1575.8,433.7l13.4-2.8
		l-11.3-21.3h-0.3L1575.8,433.7z"/>
	<path class="st4" d="M1632.9,434.8l27.4-5.6l2.4,11.3l-42.2,8.7l-13-63.5l14.8-3L1632.9,434.8z"/>
	<path class="st4" d="M1710.3,412.8l0.9,2.3h0.3v-2.3l3.1-49.1l15.4-3.1l-7.5,67.8l-15.9,3.3l-33.5-59.3l15.4-3.1L1710.3,412.8z"/>
	<path class="st4" d="M1782.1,387.7l-24.8,5.1l3.3,15.8l29.4-6l2.4,11.3l-44.2,9l-13-63.5l44.2-9l2.4,11.3l-29.5,6l2.8,13.7
		l24.8-5.1L1782.1,387.7z"/>
	<path class="st4" d="M1851.7,401.8l-14.7,3l-31.5-35.8l-0.3,0.1l8.3,40.4l-14.8,3l-13-63.5l14.8-3l31.5,35.8l0.3-0.1l-8.3-40.4
		l14.7-3L1851.7,401.8z"/>
	<path class="st4" d="M1900.9,325.5l8.5,41.7c1.5,7.3,0.3,13.3-3.8,18.3c-4,5-9.9,8.3-17.7,9.9c-7.9,1.6-14.7,0.9-20.3-2
		c-5.6-3-9.2-8.2-10.7-15.3l-8.5-41.7l14.8-3l8.5,41.7c0.8,3.9,2.4,6.5,4.8,8c2.4,1.5,5.4,1.9,9,1.1c3.6-0.8,6.3-2.3,7.8-4.5
		c1.6-2.3,2-5.4,1.1-9.3l-8.5-41.7L1900.9,325.5z"/>
	<path class="st4" d="M1957.6,351.7l-24.8,5.1l3.3,15.8l29.4-6l2.4,11.3l-44.2,9l-13-63.5l44.2-9l2.4,11.3l-29.5,6l2.8,13.7
		l24.8-5.1L1957.6,351.7z"/>
	<path class="st4" d="M1362.6,563.5l-24.3,5l5,24.5l-14.2,2.9l-12.4-60.9l42.8-8.8l2.3,10.9l-28.6,5.9l3,14.7l24.3-5L1362.6,563.5z"
		/>
	<path class="st4" d="M1423.6,550.6c1.5,7.5,0.4,14.2-3.4,20c-3.8,5.9-9.4,9.5-17.2,11.2c-7.8,1.6-14.4,0.4-20.3-3.4
		c-5.8-3.9-9.4-9.5-11-17.1l-2.3-10.9c-1.5-7.5-0.4-14.2,3.4-20c3.8-5.9,9.5-9.5,17.2-11.2c7.7-1.5,14.3-0.4,20.2,3.5
		c5.8,3.9,9.4,9.5,11,17.1L1423.6,550.6z M1407.3,542.5c-0.9-4.4-2.6-7.7-5.3-10s-5.8-3.1-9.5-2.4c-3.8,0.8-6.4,2.8-7.9,5.9
		c-1.5,3.1-1.8,7-0.9,11.3l2.3,11c0.9,4.4,2.6,7.8,5.3,10.2c2.6,2.4,5.9,3.1,9.7,2.4c3.8-0.8,6.3-2.8,7.8-5.9
		c1.5-3.3,1.8-7,0.9-11.4L1407.3,542.5z"/>
	<path class="st4" d="M1446.3,547.6l4.8,23.3l-14.2,2.9l-12.4-60.9l23.5-4.8c7-1.5,12.9-1,17.8,1.5c4.8,2.4,7.8,6.4,8.9,12.2
		c0.6,3.1,0.4,6-0.9,8.7s-3.3,4.9-6.1,7c4,0.3,7,1.5,9.2,3.6c2.1,2.1,3.6,5,4.4,8.8l0.8,3.9c0.4,1.6,0.9,3.4,1.9,5.3
		c0.9,1.9,2,3.3,3.4,3.9l0.1,0.9l-14.6,3c-1.3-0.6-2.4-2-3.1-4.1c-0.8-2.1-1.4-4.1-1.8-6l-0.8-3.6c-0.6-2.9-1.8-5-3.6-6.1
		s-4.3-1.5-7.2-0.9L1446.3,547.6z M1444.1,536.8l9.3-1.9c2.9-0.6,4.9-1.6,6.1-3.3c1.3-1.6,1.6-3.6,1.1-6c-0.5-2.5-1.6-4.3-3.5-5.5
		s-4.1-1.5-7-0.9l-9.3,1.9L1444.1,536.8z"/>
	<path class="st4" d="M1530.3,519h0.3l6.7-29.1l15.3-3.1l-12.7,43.7l4.4,21.5l-13.9,2.9l-4.5-22.1l-28.2-34.6l15.3-3.1L1530.3,519z"
		/>
	<path class="st4" d="M1613.6,511.6c1.5,7.5,0.4,14.2-3.4,20c-3.8,5.9-9.4,9.5-17.2,11.2c-7.8,1.6-14.4,0.4-20.3-3.4
		c-5.8-3.9-9.4-9.5-11-17.1l-2.3-10.9c-1.5-7.5-0.4-14.2,3.4-20c3.8-5.9,9.5-9.5,17.2-11.2c7.7-1.5,14.3-0.4,20.2,3.5
		c5.8,3.9,9.4,9.5,11,17.1L1613.6,511.6z M1597.3,503.4c-0.9-4.4-2.6-7.7-5.3-10c-2.6-2.4-5.8-3.1-9.5-2.4c-3.8,0.8-6.4,2.8-7.9,5.9
		c-1.5,3.1-1.8,7-0.9,11.3l2.3,11c0.9,4.4,2.6,7.8,5.3,10.2s5.9,3.1,9.7,2.4c3.8-0.8,6.3-2.8,7.8-5.9c1.5-3.3,1.8-7,0.9-11.4
		L1597.3,503.4z"/>
	<path class="st4" d="M1664.4,463.8l8.2,39.9c1.4,6.9,0.3,12.8-3.6,17.6s-9.5,7.9-16.9,9.4c-7.5,1.5-14.1,0.9-19.4-2
		s-8.8-7.8-10.3-14.7l-8.2-39.9l14.2-2.9l8.2,39.9c0.8,3.8,2.3,6.3,4.6,7.7c2.3,1.4,5.1,1.8,8.7,1c3.5-0.8,6-2.1,7.5-4.3
		c1.5-2.1,1.9-5.1,1.1-8.9l-8.2-39.9L1664.4,463.8z"/>
	<path class="st4" d="M1695.7,496.5l4.8,23.3l-14.2,2.9l-12.4-60.9l23.5-4.8c7-1.5,12.9-1,17.8,1.5s7.8,6.4,8.9,12.2
		c0.6,3.1,0.4,6-0.9,8.7c-1.3,2.6-3.3,4.9-6.1,7c4,0.3,7,1.5,9.2,3.6c2.1,2.1,3.6,5,4.4,8.8l0.8,3.9c0.4,1.6,0.9,3.4,1.9,5.3
		c0.9,1.9,2,3.3,3.4,3.9l0.1,0.9l-14.6,3c-1.3-0.6-2.4-2-3.1-4.1c-0.8-2.1-1.4-4.1-1.8-6l-0.8-3.6c-0.6-2.9-1.8-5-3.6-6.1
		c-1.9-1.3-4.3-1.5-7.2-0.9L1695.7,496.5z M1693.4,485.6l9.3-1.9c2.9-0.6,4.9-1.6,6.1-3.3c1.3-1.6,1.6-3.6,1.1-6
		c-0.5-2.5-1.6-4.3-3.5-5.5s-4.1-1.5-7-0.9l-9.3,1.9L1693.4,485.6z"/>
	<path class="st4" d="M1796.8,472.9l-23.8,4.9l3.1,15.2l28.1-5.8l2.3,10.9l-42.3,8.7l-12.4-60.9l42.4-8.7l2.3,10.9l-28.2,5.8l2.6,13
		l23.8-4.9L1796.8,472.9z"/>
	<path class="st4" d="M1831.3,475.8l0.9,2.1h0.3v-2.1l3-47.1l14.8-3l-7.3,65l-15.3,3.1l-32.1-56.8l14.8-3L1831.3,475.8z"/>
	<path class="st4" d="M1900.2,451.7l-23.8,4.9l3.1,15.2l28.1-5.8l2.3,10.9l-42.3,8.7l-12.4-60.9l42.4-8.7l2.3,10.9l-28.2,5.8l2.6,13
		l23.8-4.9L1900.2,451.7z"/>
	<path class="st4" d="M1966.9,465.2l-14.1,2.9l-30.2-34.3l-0.3,0.1l7.9,38.8l-14.2,2.9l-12.4-60.9l14.2-2.9l30.2,34.3l0.3-0.1
		l-7.9-38.8l14.1-2.9L1966.9,465.2z"/>
	<path class="st4" d="M2007.6,404.8l-16.1,3.3l10.3,50.1l-14.2,2.9l-10.3-50.1l-15.9,3.3l-2.3-10.9l46.2-9.4L2007.6,404.8z"/>
</g>
</svg>
